<svg xmlns:xlink="http://www.w3.org/1999/xlink" class="Login_image-brain__WIy3j" xmlns="http://www.w3.org/2000/svg" viewBox="0 0 1627.18 1710.98" width="1627.18"  height="1710.98" ><defs></defs><path d="M395.76,1548.59c-7.16,9.72-5.09,23.42,4.64,30.58,3.91,2.88,8.45,4.27,12.96,4.27,6.71,0,13.34-3.08,17.63-8.9,23.37-31.73,37.23-74.72,41.19-127.79,6.57-88.31-7.12-173.63-22.97-260.52-10.42-57.12-31.24-109.57-51.38-160.3-13.74-34.62-27.95-70.42-38.41-106.84-17.32-60.29-26.09-129.17-26.09-204.72,0-12.08-9.79-21.87-21.87-21.87s-21.87,9.79-21.87,21.87c0,79.64,9.35,152.58,27.79,216.79,11.04,38.47,25.66,75.29,39.8,110.9,20.24,50.99,39.36,99.16,49,152.01,15.91,87.2,28.57,166.16,22.37,249.42-3.33,44.74-14.36,80.1-32.78,105.1Z"></path><path d="M844.45,203.23c281.84,0,511.14,229.3,511.14,511.14v164.13c0,6.84,3.2,13.29,8.65,17.42l116.62,88.52c.93.7,1.91,1.33,2.93,1.88,3.36,1.79,8.35,5.98,9.94,8.57-2.82,3.9-20.24,21.64-110.68,38.83-.8.15-1.59.35-2.37.59l-11.55,3.57c-3.91,1.2-7.4,3.48-10.08,6.57-35.05,40.43-18.33,76.31-4.9,105.13,4.2,9.03,8.55,18.36,11.42,27.72,1.51,4.93,3.18,9.62,4.66,13.75,1.46,4.1,3.48,9.78,4.35,13.47-.58.21-1.29.44-2.13.68-60.54,17.26-95.72,15.1-152.67,9.81-12.04-1.13-22.68,7.73-23.8,19.75-1.12,12.03,7.72,22.68,19.75,23.8,24.16,2.25,45.29,3.93,66.2,3.93,17.77,0,35.44-1.29,54.6-4.39,6.12-7.06,16.28-9.73,25.28-5.77.34.15.61.37.95.53,6.98-1.64,14.13-3.44,21.69-5.6,14.62-4.17,24.75-11.57,30.13-22,8.44-16.41,2.29-33.68-3.13-48.9-1.34-3.78-2.77-7.74-4.03-11.87-3.76-12.27-8.99-23.5-13.6-33.4-12.33-26.45-16.63-37.87-5.37-53.41l3.99-1.23c95.05-18.2,139.77-41.45,144.93-75.34,4.46-29.25-23.23-47.73-31.22-52.41l-106.81-81.08v-153.27c0-305.96-248.92-554.88-554.88-554.88-12.08,0-21.87,9.79-21.87,21.87s9.79,21.87,21.87,21.87Z"></path><path d="M1336.53,1258.11c-1.4,1.61-2.65,3.38-3.55,5.43-13.78,31.28-22.15,63.62-30.25,94.89-7.95,30.7-15.46,59.71-27.6,87.16-20.06,45.34-77.5,41.67-150.51,32.16-12.45-1.63-24.2-3.16-34.97-4.04-87.77-7.24-395.3-110.63-459.09-231.09-15.32-28.93-15.2-56.37.36-83.89,5.95-10.51,2.24-23.86-8.28-29.81-10.51-5.94-23.86-2.24-29.8,8.28-22.83,40.39-23.16,83.93-.94,125.89,41.73,78.82,155.3,140.69,243.22,178.71,44.92,19.42,90.18,35.68,130.66,48.1v-5.93c0-12.08,9.79-21.87,21.87-21.87s21.87,9.79,21.87,21.87v18.38c31.96,8.33,58.66,13.48,76.53,14.95,9.73.8,20.99,2.27,32.91,3.83,22.08,2.87,48.02,6.25,74,6.25,49.6,0,99.29-12.34,122.18-64.09,13.59-30.72,21.9-62.83,29.94-93.88,8.01-30.95,15.58-60.18,27.93-88.21,4.72-10.72.1-23.11-10.25-28.31-.33-.16-.61-.38-.95-.53-9-3.96-19.16-1.3-25.28,5.77Z"></path><path d="M987.65,1462.08c-12.08,0-21.87,9.79-21.87,21.87v199.84c0,12.08,9.79,21.87,21.87,21.87s21.87-9.79,21.87-21.87v-199.84c0-12.08-9.79-21.87-21.87-21.87Z"></path><path class="Login_image-brain-green__6CvfM" d="M110.53,446.26h89.86c1.48,3.8,3.05,7.58,4.72,11.33l-63.56,63.55c-8.54,8.54-8.54,22.39,0,30.93l97.41,97.42c8.54,8.54,22.39,8.54,30.93,0l63.56-63.55c3.75,1.67,7.53,3.24,11.33,4.72v89.85c0,12.08,9.79,21.87,21.87,21.87h137.76c12.08,0,21.87-9.79,21.87-21.87v-89.86c3.8-1.47,7.58-3.05,11.33-4.72l63.56,63.55c8.54,8.54,22.39,8.54,30.93,0l97.41-97.41c4.1-4.1,6.41-9.67,6.41-15.47s-2.3-11.36-6.41-15.47l-63.56-63.55c1.67-3.75,3.24-7.53,4.72-11.33h89.85c12.08,0,21.87-9.79,21.87-21.87v-137.76c0-12.08-9.79-21.87-21.87-21.87h-89.85c-1.48-3.8-3.05-7.59-4.72-11.34l63.56-63.56c8.54-8.54,8.54-22.39,0-30.93l-97.41-97.41c-8.54-8.54-22.39-8.54-30.93,0l-63.55,63.56c-3.75-1.67-7.54-3.25-11.34-4.72V30.49c0-12.08-9.79-21.87-21.87-21.87h-137.76c-12.08,0-21.87,9.79-21.87,21.87v89.86c-3.8,1.48-7.59,3.05-11.34,4.72l-63.56-63.56c-4.1-4.1-9.67-6.4-15.47-6.4s-11.36,2.3-15.47,6.4l-97.41,97.41c-4.1,4.1-6.4,9.67-6.4,15.47s2.3,11.36,6.4,15.47l63.56,63.56c-1.67,3.75-3.25,7.54-4.72,11.34h-89.86c-12.08,0-21.87,9.79-21.87,21.87v137.76c0,12.08,9.79,21.87,21.87,21.87ZM132.4,308.5h83.49c9.56,0,18.01-6.21,20.87-15.34,3.62-11.55,8.39-23.02,14.18-34.08,4.44-8.48,2.85-18.85-3.91-25.61l-59.08-59.08,66.48-66.48,59.08,59.08c6.76,6.76,17.14,8.35,25.61,3.91,11.06-5.79,22.53-10.56,34.08-14.18,9.13-2.86,15.34-11.31,15.34-20.87V52.37h94.02v83.49c0,9.56,6.21,18.01,15.33,20.87,11.57,3.62,23.03,8.4,34.08,14.18,8.47,4.44,18.84,2.86,25.61-3.91l59.08-59.08,66.48,66.48-59.08,59.08c-6.76,6.77-8.35,17.14-3.91,25.61,5.78,11.04,10.55,22.51,14.17,34.07,2.86,9.12,11.31,15.34,20.87,15.34h83.48v94.02h-83.48c-9.56,0-18.02,6.21-20.87,15.34-3.62,11.57-8.39,23.03-14.17,34.08-4.44,8.47-2.86,18.85,3.91,25.61l59.08,59.07-66.48,66.48-59.08-59.08c-6.76-6.76-17.13-8.35-25.61-3.91-11.05,5.79-22.52,10.56-34.08,14.18-9.12,2.86-15.33,11.31-15.33,20.88v83.48h-94.02v-83.48c0-9.56-6.21-18.02-15.34-20.88-11.55-3.62-23.02-8.39-34.07-14.18-8.47-4.44-18.85-2.85-25.61,3.91l-59.09,59.08-66.48-66.48,59.08-59.07c6.76-6.77,8.35-17.14,3.91-25.61-5.79-11.05-10.56-22.52-14.18-34.08-2.86-9.13-11.31-15.34-20.87-15.34h-83.49v-94.02Z" fill="#0F8E0B"></path><path class="Login_image-brain-green__6CvfM" d="M435.54,470.93c63.64,0,115.42-51.78,115.42-115.42s-51.78-115.43-115.42-115.43-115.43,51.78-115.43,115.43,51.78,115.42,115.43,115.42ZM435.54,283.82c39.53,0,71.68,32.16,71.68,71.69s-32.15,71.68-71.68,71.68-71.69-32.16-71.69-71.68,32.16-71.69,71.69-71.69Z" fill="#0F8E0B"></path><path class="Login_image-brain-green__6CvfM" d="M931.78,752.34c43.48,0,78.85-35.38,78.85-78.86s-35.38-78.87-78.85-78.87-78.86,35.38-78.86,78.87,35.38,78.86,78.86,78.86ZM931.78,638.36c19.36,0,35.11,15.76,35.11,35.12s-15.75,35.11-35.11,35.11-35.12-15.75-35.12-35.11,15.76-35.12,35.12-35.12Z" fill="#0F8E0B"></path><path class="Login_image-brain-green__6CvfM" d="M746.65,578.62l31.03,31.03h-43.88c-12.08,0-21.87,9.79-21.87,21.87v83.92c0,12.08,9.79,21.87,21.87,21.87h43.88l-31.03,31.03c-4.1,4.1-6.41,9.67-6.41,15.47s2.3,11.36,6.41,15.47l59.34,59.33c8.54,8.54,22.39,8.54,30.92,0l31.03-31.02v43.88c0,12.08,9.79,21.87,21.87,21.87h83.92c12.08,0,21.87-9.79,21.87-21.87v-43.88l31.04,31.03c8.54,8.54,22.39,8.54,30.93,0l59.33-59.33c8.54-8.54,8.54-22.39,0-30.93l-31.03-31.03h43.88c12.08,0,21.87-9.79,21.87-21.87v-83.92c0-12.08-9.79-21.87-21.87-21.87h-43.88l31.02-31.03c8.54-8.54,8.54-22.39,0-30.93l-59.33-59.34c-4.1-4.1-9.67-6.41-15.47-6.41s-11.36,2.3-15.46,6.4l-31.04,31.04v-43.89c0-12.08-9.79-21.87-21.87-21.87h-83.92c-12.08,0-21.87,9.79-21.87,21.87v43.88l-31.03-31.03c-4.1-4.1-9.67-6.4-15.47-6.4s-11.36,2.3-15.46,6.4l-59.34,59.34c-8.54,8.54-8.54,22.39,0,30.93ZM821.46,534.75l29.95,29.94c6.76,6.76,17.13,8.35,25.62,3.91,6.27-3.29,12.77-6,19.34-8.05,9.12-2.86,15.33-11.31,15.33-20.87v-42.3h40.18v42.3c0,9.56,6.22,18.01,15.34,20.87,6.55,2.05,13.06,4.76,19.34,8.05,8.48,4.45,18.85,2.86,25.62-3.91l29.94-29.94,28.4,28.41-29.94,29.95c-6.76,6.76-8.35,17.13-3.91,25.61,3.29,6.28,6,12.79,8.06,19.36,2.86,9.12,11.31,15.33,20.87,15.33h42.3v40.18h-42.3c-9.56,0-18.01,6.2-20.87,15.32-2.06,6.56-4.77,13.07-8.06,19.37-4.43,8.47-2.85,18.84,3.91,25.6l29.94,29.95-28.4,28.4-29.94-29.94c-6.76-6.75-17.12-8.35-25.6-3.91-6.3,3.29-12.81,6-19.35,8.05-9.12,2.86-15.34,11.31-15.34,20.87v42.31h-40.18v-42.31c0-9.56-6.21-18.01-15.33-20.87-6.55-2.05-13.07-4.76-19.35-8.05-8.47-4.43-18.85-2.85-25.61,3.91l-29.95,29.94-28.41-28.4,29.94-29.94c6.77-6.76,8.35-17.14,3.91-25.61-3.29-6.29-6-12.8-8.05-19.35-2.86-9.12-11.31-15.34-20.87-15.34h-42.31v-40.18h42.31c9.56,0,18.01-6.21,20.87-15.33,2.06-6.56,4.76-13.07,8.05-19.34,4.44-8.48,2.86-18.86-3.91-25.62l-29.94-29.94,28.41-28.41Z" fill="#0F8E0B"></path><polygon class="Login_image-brain-goldish__gw6Ww" points="207.5 1233.9 185.55 1325.23 170.27 1232.55 78.95 1210.6 171.63 1195.31 193.58 1103.99 208.86 1196.67 300.19 1218.62 207.5 1233.9" fill="#8E740B"></polygon><polygon class="Login_image-brain-goldish__gw6Ww" points="294.25 1410.19 279.89 1469.9 269.9 1409.3 210.18 1394.95 270.78 1384.95 285.14 1325.24 295.13 1385.83 354.85 1400.19 294.25 1410.19" fill="#8E740B"></polygon><polygon class="Login_image-brain-goldish__gw6Ww" points="1436.94 273.21 1414.99 364.54 1399.71 271.86 1308.39 249.91 1401.06 234.63 1423.02 143.3 1438.29 235.98 1529.62 257.94 1436.94 273.21" fill="#8E740B"></polygon><polygon class="Login_image-brain-goldish__gw6Ww" points="1523.68 449.49 1509.33 509.21 1499.34 448.61 1439.62 434.25 1500.22 424.26 1514.58 364.55 1524.57 425.15 1584.29 439.51 1523.68 449.49" fill="#8E740B"></polygon></svg>