<svg
                width="42"
                height="33"
                viewBox="0 0 42 33"
                fill="none"
                xmlns="http://www.w3.org/2000/svg"
              >
                <path
                  d="M26.3546 0C26.241 6.21039e-05 26.1294 0.0301424 26.0313 0.0871926C25.9331 0.144243 25.852 0.226192 25.7962 0.324663L18.0141 0.613096C17.954 0.54579 17.8803 0.491903 17.7978 0.454942C17.7153 0.417982 17.6259 0.398795 17.5354 0.398655C17.4067 0.398765 17.281 0.43737 17.1747 0.509473C17.0683 0.581577 16.9862 0.683835 16.9391 0.802948L6.78588 5.45968C6.70797 5.42744 6.62442 5.41082 6.54003 5.41075C6.37489 5.41096 6.2162 5.47449 6.09698 5.58814C5.97777 5.7018 5.90723 5.85682 5.90005 6.0209L3.01219 9.09516L2.43421 9.63931C2.39081 9.63019 2.34657 9.62556 2.3022 9.62551C2.21797 9.62551 2.13456 9.64204 2.05674 9.6741C1.97892 9.70615 1.90822 9.75313 1.84866 9.81236C1.7891 9.8716 1.74185 9.94193 1.70962 10.0193C1.67739 10.0967 1.6608 10.1797 1.66081 10.2635C1.66094 10.3492 1.67847 10.4341 1.71235 10.513C1.74622 10.5919 1.79575 10.6631 1.85796 10.7226L0.318038 16.2062C0.221376 16.2623 0.141163 16.3426 0.0853693 16.4391C0.0295759 16.5356 0.000144628 16.645 0 16.7563C0.000101798 16.905 0.0524588 17.049 0.148018 17.1634C0.243577 17.2779 0.376331 17.3555 0.523326 17.3828L2.83383 22.9633C2.74199 23.0766 2.69183 23.2176 2.69165 23.3631C2.69165 23.4468 2.70823 23.5298 2.74046 23.6072C2.77269 23.6846 2.81994 23.7549 2.8795 23.8142C2.93906 23.8734 3.00977 23.9204 3.08759 23.9525C3.16541 23.9845 3.24881 24.001 3.33305 24.001C3.4314 24.0008 3.52839 23.9782 3.61652 23.9348C3.70466 23.8914 3.78158 23.8284 3.84134 23.7507L9.28367 24.9851C9.30419 25.1382 9.37987 25.2787 9.49668 25.3806C9.61349 25.4824 9.76348 25.5386 9.91881 25.5387C10.0189 25.5386 10.1175 25.5152 10.2069 25.4704C10.2962 25.4255 10.3738 25.3605 10.4334 25.2805L14.3796 26.3707C14.4316 26.4796 14.5136 26.5716 14.616 26.636C14.7185 26.7005 14.8372 26.7347 14.9584 26.7348C15.1285 26.7348 15.2916 26.6676 15.4119 26.548C15.5322 26.4284 15.5998 26.2661 15.5998 26.0969C15.5995 26.0754 15.5981 26.0538 15.5956 26.0324L17.3569 24.4997C17.4475 24.5461 17.5479 24.5704 17.6497 24.5705C17.7523 24.5705 17.8534 24.5459 17.9444 24.499C18.0355 24.452 18.1139 24.3841 18.1731 24.3008L20.2969 25.0175C20.3349 25.1512 20.4158 25.2688 20.5272 25.3526C20.6386 25.4364 20.7744 25.4817 20.914 25.4818C20.9601 25.4816 21.0061 25.4764 21.0511 25.4664L25.2081 29.745C25.2013 29.7817 25.1978 29.8188 25.1976 29.856C25.1976 30.0252 25.2652 30.1875 25.3855 30.3071C25.5057 30.4267 25.6689 30.4939 25.839 30.4939C25.8834 30.4937 25.9276 30.4888 25.971 30.4795L27.9669 32.2054C27.9536 32.2566 27.9468 32.3092 27.9465 32.3621C27.9465 32.5313 28.0141 32.6935 28.1344 32.8132C28.2547 32.9328 28.4178 33 28.5879 33C28.7518 32.9998 28.9094 32.9371 29.0283 32.825C29.1472 32.7129 29.2185 32.5598 29.2275 32.397L31.0539 32.0051C31.1136 32.084 31.191 32.1481 31.2798 32.1922C31.3686 32.2363 31.4665 32.2594 31.5658 32.2595C31.6501 32.2595 31.7335 32.243 31.8113 32.2109C31.8891 32.1788 31.9598 32.1318 32.0194 32.0726C32.0789 32.0134 32.1262 31.943 32.1584 31.8656C32.1907 31.7882 32.2072 31.7053 32.2072 31.6216C32.2072 31.4524 32.1397 31.2901 32.0194 31.1705C31.8991 31.0509 31.7359 30.9836 31.5658 30.9836C31.4862 30.9837 31.4072 30.9985 31.333 31.0273L30.2105 28.6702C30.2801 28.5658 30.3172 28.4434 30.3173 28.3182C30.3171 28.272 30.3118 28.226 30.3015 28.1809L31.0246 27.1021C31.0884 27.1226 31.1551 27.1331 31.2221 27.1332C31.327 27.1331 31.4303 27.1075 31.5229 27.0586C31.6156 27.0096 31.6947 26.9388 31.7534 26.8523L34.0663 27.024C34.1147 27.1405 34.1968 27.2401 34.3022 27.3102C34.4075 27.3803 34.5314 27.4179 34.6582 27.418C34.8283 27.418 34.9914 27.3508 35.1117 27.2312C35.232 27.1116 35.2996 26.9493 35.2996 26.7801C35.2994 26.7612 35.2985 26.7424 35.2966 26.7236L36.5949 24.6755C36.7408 24.6515 36.8738 24.5781 36.9715 24.4677H38.1925C38.2418 24.5825 38.3239 24.6804 38.4286 24.7493C38.5333 24.8181 38.6561 24.8549 38.7816 24.855C38.9517 24.855 39.1148 24.7878 39.2351 24.6682C39.3554 24.5486 39.423 24.3863 39.423 24.2171C39.4228 24.1277 39.4038 24.0393 39.3671 23.9577C39.3304 23.876 39.2768 23.803 39.2099 23.7433L41.4306 20.4077C41.5871 20.3901 41.7317 20.3159 41.8367 20.1991C41.9417 20.0823 41.9998 19.9313 42 19.7746C41.9998 19.6328 41.9521 19.4951 41.8645 19.3833C41.7768 19.2715 41.6542 19.1919 41.516 19.1571L40.8804 15.0277C40.977 14.9716 41.0572 14.8913 41.113 14.7948C41.1687 14.6983 41.1981 14.5889 41.1982 14.4776C41.1982 14.3085 41.1307 14.1462 41.0104 14.0266C40.8901 13.907 40.727 13.8398 40.5569 13.8398C40.5328 13.8401 40.5087 13.8418 40.4848 13.8449L36.2321 6.44335C36.2961 6.34209 36.3302 6.22497 36.3305 6.10538C36.3305 5.9362 36.2629 5.77394 36.1426 5.65431C36.0223 5.53469 35.8592 5.46749 35.6891 5.46749C35.5747 5.46778 35.4624 5.49847 35.364 5.55641L26.9802 0.50174C26.949 0.359732 26.87 0.232579 26.7562 0.141355C26.6424 0.0501307 26.5008 0.000193249 26.3546 0ZM25.7359 0.805752C25.7696 0.927894 25.839 1.03731 25.9354 1.12008C26.0317 1.20284 26.1507 1.25521 26.2771 1.2705L27.2434 5.50792L18.1702 1.12203C18.172 1.10996 18.1734 1.09784 18.1744 1.08569L25.7359 0.805752ZM26.8814 1.00152L34.6969 5.7138L28.3579 5.75927C28.3042 5.65439 28.2224 5.56634 28.1216 5.50483C28.0207 5.44332 27.9047 5.41076 27.7863 5.41075C27.7627 5.411 27.739 5.41253 27.7156 5.41537L26.742 1.14568C26.7958 1.10525 26.8428 1.05653 26.8814 1.00152ZM16.961 1.31981C16.997 1.39161 17.0462 1.45602 17.1062 1.50967L13.7785 6.63717C13.7156 6.6171 13.6499 6.60682 13.5838 6.60669C13.4664 6.60682 13.3512 6.63903 13.2509 6.6998C13.1505 6.76057 13.0689 6.84755 13.0149 6.9513L7.16734 5.91941C7.16073 5.88687 7.15157 5.85489 7.13996 5.82377L16.961 1.31981ZM17.9491 1.54706L26.4251 5.64434L19.6229 6.3869L17.9491 1.54706ZM17.5147 1.76229L19.1326 6.44049L14.1678 6.98243C14.1623 6.97028 14.1565 6.9583 14.1504 6.94651L17.5147 1.76229ZM27.0458 6.05798L20.9237 9.73132C20.8707 9.69654 20.8128 9.66978 20.7519 9.65191L19.7833 6.85068L27.0458 6.05798ZM35.0542 6.18974C35.0705 6.31082 35.1213 6.42471 35.2008 6.51788L33.9075 9.88647L28.3975 6.24129C28.3979 6.2399 28.3984 6.23849 28.3988 6.2371L35.0542 6.18974ZM7.08074 6.39015L12.9708 7.42969C12.9907 7.49479 13.0209 7.5563 13.0603 7.6119L8.31469 12.4761C8.29586 12.4738 8.27695 12.4724 8.258 12.4719C8.21746 12.4721 8.17703 12.4762 8.13727 12.484C8.10198 12.3016 8.06891 12.1289 8.02076 11.8877C7.88099 11.1873 7.69488 10.2757 7.50871 9.3713C7.26552 8.18989 7.06488 7.2256 6.92541 6.55664C6.98688 6.51051 7.0395 6.45377 7.08074 6.38911V6.39015ZM27.1714 6.54123L24.3133 15.1687C24.2501 15.184 24.1897 15.2088 24.134 15.2421L21.0308 10.7064C21.1467 10.5877 21.2117 10.4288 21.212 10.2634C21.2117 10.2173 21.2064 10.1714 21.1962 10.1264L27.1714 6.54123ZM28.0878 6.611L33.7315 10.3448L32.0395 14.7521C32.0344 14.7521 32.0292 14.7521 32.024 14.7521C31.9448 14.7522 31.8663 14.7668 31.7924 14.7953L28.0776 6.61774C28.081 6.61582 28.0844 6.61388 28.0878 6.6119L28.0878 6.611ZM6.31423 6.64482C6.36119 6.66242 6.41007 6.67447 6.45986 6.68074C6.60034 7.35484 6.79863 8.30849 7.03737 9.46827C7.22344 10.3722 7.40955 11.2833 7.54895 11.9819C7.58868 12.181 7.61373 12.313 7.64479 12.4724L2.93389 10.1533C2.92141 10.0837 2.89739 10.0167 2.8628 9.95494L3.35371 9.43246L6.31423 6.64482ZM35.84 6.7249L39.9557 13.8879L34.3181 10.1583L35.6302 6.7406C35.6498 6.74289 35.6695 6.7443 35.6892 6.74479C35.74 6.74463 35.7906 6.73845 35.84 6.7264V6.7249ZM27.6092 6.7483L31.4246 15.1465L25.0664 15.5681C25.0159 15.4319 24.9203 15.3169 24.7953 15.242L27.6092 6.7483ZM19.293 6.90402L20.2617 9.70497C20.1904 9.74385 20.1272 9.79585 20.0755 9.8582L14.3734 7.441L19.293 6.90402ZM13.9374 7.77631L19.9118 10.3087L16.5666 12.1619C16.4522 12.0687 16.3089 12.0177 16.161 12.0175C16.1458 12.017 16.1306 12.017 16.1154 12.0175L13.9362 7.77569C13.9366 7.77569 13.937 7.77569 13.9374 7.77569L13.9374 7.77631ZM13.4556 7.89356L15.6837 12.2302C15.5783 12.347 15.5199 12.4984 15.5196 12.6554C15.5197 12.7971 15.5672 12.9348 15.6547 13.0467L12.5334 17.9996C12.5209 17.9993 12.5083 17.9993 12.4958 17.9996C12.4112 17.9998 12.3275 18.0166 12.2495 18.0491L8.74029 13.5327C8.8427 13.4165 8.89923 13.2673 8.89939 13.1128C8.89928 12.9668 8.84888 12.8254 8.75658 12.7119L13.4556 7.89546L13.4556 7.89356ZM34.1422 10.6163L39.8761 14.4097L32.5055 14.8796L34.1422 10.6163ZM2.82397 10.633L7.43182 12.9012L1.03836 16.2558C0.977351 16.2077 0.908052 16.1711 0.83385 16.1476L2.30721 10.9009C2.4085 10.9 2.50813 10.8753 2.59795 10.8287C2.68776 10.7821 2.76522 10.7151 2.82397 10.633ZM20.1367 10.7318C20.2549 10.8403 20.4097 10.9008 20.5706 10.9011C20.5744 10.9011 20.5782 10.9011 20.582 10.9011L23.8368 15.6588C23.8279 15.7014 23.8234 15.7447 23.8233 15.7882C23.8235 15.8398 23.83 15.8912 23.8427 15.9413L21.6558 19.2512C21.6024 19.2516 21.5493 19.2586 21.4978 19.2721L16.7026 12.9959C16.7675 12.8942 16.802 12.7763 16.8024 12.6559C16.8021 12.6313 16.8003 12.6067 16.7972 12.5823L20.1367 10.7324L20.1367 10.7318ZM16.3118 13.2745L21.1118 19.5569C21.1073 19.564 21.1029 19.5711 21.0986 19.5783L13.1147 18.4688C13.088 18.3715 13.0384 18.2819 12.9702 18.2073L16.0716 13.2864C16.1012 13.2908 16.1311 13.2932 16.161 13.2935C16.2118 13.2932 16.2625 13.2867 16.3118 13.2745ZM7.63273 13.3367L5.29373 18.4166C5.18891 18.4432 5.09255 18.4956 5.01358 18.5691L1.28217 16.7358C1.28132 16.7143 1.27939 16.6929 1.27638 16.6717L7.63273 13.3367ZM7.95609 13.7834L9.13647 21.6591L6.02642 19.3163C6.07017 19.2286 6.09304 19.1321 6.09328 19.0342C6.09313 18.9255 6.06501 18.8185 6.01159 18.7236C5.95817 18.6286 5.88123 18.5489 5.78808 18.4918L7.95609 13.7834ZM8.46987 13.9652L11.9052 18.3867C11.8716 18.4654 11.8544 18.5501 11.8544 18.6356C11.8546 18.7878 11.9096 18.9349 12.0093 19.0504C12.109 19.1659 12.247 19.2421 12.3983 19.2652L14.6112 25.5601C14.5599 25.5932 14.5135 25.6333 14.4736 25.6794L9.6847 22.0721L8.46987 13.9652ZM40.0293 14.8795L38.6314 18.3959L32.6635 15.4282C32.6645 15.4152 32.6651 15.4022 32.6652 15.3892C32.6652 15.3759 32.6648 15.3625 32.664 15.3493L40.0293 14.8795ZM40.4201 15.1974L41.0393 19.2222C40.936 19.2811 40.8512 19.3674 40.7944 19.4716L39.0633 18.6106L40.4201 15.1974ZM31.3533 15.6308L30.5009 21.0484L25.0461 16.0556C25.0473 16.0535 25.0484 16.0513 25.0495 16.0492L31.3533 15.6308ZM31.7852 15.9807C31.8611 16.0112 31.9422 16.027 32.024 16.0271C32.087 16.027 32.1495 16.0176 32.2097 15.9993L35.7038 20.5923L31.1563 21.3139C31.1013 21.26 31.0369 21.2164 30.9662 21.1852L31.7852 15.9807ZM32.8597 16.0606L38.4538 18.8424L37.8967 20.244L36.2418 20.5066L32.8597 16.0606ZM24.694 16.3833L30.1798 21.4049C30.1055 21.5115 30.0656 21.6383 30.0655 21.7681C30.0657 21.7746 30.066 21.7811 30.0664 21.7876L25.6934 24.4249C25.6157 24.3561 25.5224 24.3071 25.4214 24.2821L24.5537 16.4186C24.6017 16.412 24.6487 16.4004 24.694 16.3833ZM24.0742 16.4619L24.9195 24.1209L22.197 20.2342C22.264 20.1312 22.2998 20.0112 22.3 19.8885C22.2999 19.8042 22.283 19.7207 22.2503 19.643C22.2176 19.5652 22.1697 19.4947 22.1094 19.4355L24.0742 16.4619ZM1.11352 17.1868L4.81205 19.0036C4.81124 19.0138 4.81068 19.024 4.81037 19.0342C4.81068 19.1864 4.86567 19.3334 4.9654 19.4488L3.29567 22.7261C3.28294 22.7273 3.27025 22.7288 3.25761 22.7308L1.00223 17.2832C1.04286 17.2557 1.08016 17.2235 1.11341 17.1875L1.11352 17.1868ZM13.0572 18.9436L20.966 20.0428L17.8733 23.3352C17.8019 23.3085 17.7262 23.2947 17.6499 23.2944C17.4939 23.2947 17.3434 23.3515 17.2264 23.4542L13.0561 18.9453C13.0565 18.9453 13.057 18.9453 13.0574 18.9453L13.0572 18.9436ZM38.8857 19.0571L40.4557 19.8379L38.4488 20.1563L38.8857 19.0571ZM13.0364 19.6306L17.0088 23.9258C17.0087 23.9279 17.0086 23.9301 17.0085 23.9323C17.0088 24.0018 17.0205 24.0708 17.0432 24.1366L15.3608 25.6007C15.282 25.5373 15.1892 25.4934 15.0901 25.4725L13.0364 19.6306ZM5.65655 19.638L9.23795 22.3357L9.54487 24.3835C9.491 24.4219 9.44346 24.4685 9.40393 24.5214L3.96928 23.2888C3.95082 23.1319 3.87449 22.9874 3.75506 22.8832L5.39238 19.6691C5.41213 19.6716 5.43198 19.6732 5.45188 19.6738C5.52153 19.6735 5.59065 19.6619 5.65655 19.6395V19.638ZM40.929 20.2474C40.9355 20.2536 40.9421 20.2596 40.9488 20.2655L38.7412 23.5811C38.6932 23.5842 38.6457 23.5926 38.5996 23.6062L37.5999 22.2921L38.2432 20.6738L40.929 20.2474ZM21.225 20.468L20.5986 24.2892C20.4968 24.3465 20.4126 24.4303 20.3551 24.5317L18.2831 23.8325C18.2734 23.7721 18.2549 23.7133 18.2283 23.6582L21.225 20.468ZM21.8033 20.5093L24.6581 24.585L21.5382 24.6999C21.5126 24.59 21.4581 24.4888 21.3804 24.4066C21.3026 24.3245 21.2043 24.2643 21.0955 24.2322L21.7031 20.525C21.7368 20.5225 21.7704 20.5171 21.8033 20.5093ZM37.6911 20.7612L37.2601 21.8453L36.5708 20.9391L37.6911 20.7612ZM36.0326 21.0245L37.0531 22.3661L36.6323 23.4248C36.586 23.4142 36.5385 23.4087 36.4909 23.4085C36.3983 23.4086 36.3069 23.4286 36.2228 23.4671C36.1387 23.5057 36.064 23.5619 36.0038 23.6318L31.7425 21.7054L36.0326 21.0245ZM31.4644 22.1052L35.8509 24.0882C35.8571 24.1793 35.8828 24.268 35.9264 24.3483C35.97 24.4286 36.0304 24.4987 36.1035 24.5538L35.0243 26.2565C34.9169 26.1822 34.7892 26.1424 34.6583 26.1424C34.6246 26.1425 34.5908 26.1453 34.5575 26.1507L31.4644 22.1052ZM30.2638 22.2283C30.3387 22.2998 30.43 22.3521 30.5298 22.3807L30.8579 25.9714C30.7726 26.03 30.7028 26.1083 30.6545 26.1995C30.6063 26.2908 30.581 26.3923 30.5809 26.4954C30.581 26.5986 30.6063 26.7001 30.6546 26.7914L29.9999 27.7681C29.9017 27.7107 29.79 27.6803 29.6761 27.6801C29.5471 27.6804 29.4211 27.7192 29.3147 27.7918L25.869 25.117C25.8945 25.0477 25.9076 24.9745 25.9079 24.9007C25.9078 24.8858 25.9073 24.8709 25.9062 24.8561L30.2638 22.2283ZM31.0251 22.3212L34.1439 26.4004C34.1109 26.4447 34.0837 26.493 34.0631 26.5442L31.8529 26.3801C31.829 26.2519 31.7663 26.134 31.6731 26.0424C31.5799 25.9508 31.4607 25.8898 31.3316 25.8675L31.0082 22.3307C31.0139 22.3276 31.0195 22.3246 31.0251 22.3212ZM9.78601 22.7487L13.6778 25.6802L10.5538 24.8172C10.5355 24.6803 10.4729 24.553 10.3756 24.4545C10.2783 24.3559 10.1515 24.2914 10.0142 24.2707L9.78601 22.7487ZM37.3929 22.8127L38.2233 23.9042C38.2079 23.9316 38.1945 23.9601 38.1834 23.9895H37.1293C37.1204 23.8906 37.0884 23.7951 37.0359 23.7107L37.3929 22.8127ZM24.6468 25.0642C24.6792 25.1852 24.7468 25.2941 24.841 25.3772C24.9352 25.4603 25.0519 25.514 25.1766 25.5316L25.4223 29.2764L21.4519 25.1902C21.4537 25.1873 21.4555 25.1843 21.4572 25.1814L24.6468 25.0642ZM25.6606 25.5622L29.0475 28.1913C29.039 28.233 29.0347 28.2755 29.0347 28.3181C29.0347 28.3332 29.0352 28.3484 29.0364 28.3636L26.3162 29.4303C26.209 29.3112 26.0606 29.2364 25.9006 29.2209L25.6606 25.5622ZM29.25 28.7941C29.2737 28.8151 29.2989 28.8344 29.3255 28.8516L28.8861 30.017C28.792 30.0237 28.7006 30.0511 28.6183 30.097C28.5361 30.1429 28.465 30.2063 28.4102 30.2827L26.4754 29.9327C26.4773 29.9155 26.4786 29.8981 26.4791 29.8807L29.25 28.7941ZM29.8076 28.9416L30.8106 31.0473L29.5694 30.5912C29.5533 30.4252 29.4724 30.2721 29.3441 30.1646L29.8051 28.9422C29.806 28.9422 29.8068 28.9422 29.8076 28.9422L29.8076 28.9416ZM26.6769 30.4556L28.2979 30.7486C28.3233 30.9143 28.4133 31.0634 28.5483 31.1636L28.4742 31.7343C28.3959 31.7484 28.3208 31.777 28.253 31.8185L26.6769 30.4556ZM29.4323 31.0509L30.8284 31.5641L29.0693 31.9415C29.0332 31.9003 28.9919 31.8639 28.9465 31.8332L29.0176 31.2846C29.1809 31.2626 29.3294 31.1789 29.4323 31.0509Z"
                  fill="#D3D3D3"
                />
              </svg>