<svg class="icon-core-question" 
xmlns="http://www.w3.org/2000/svg"
xmlns:xlink="http://www.w3.org/1999/xlink" 
xmlns:x="http://ns.adobe.com/Extensibility/1.0/"
xmlns:i="http://ns.adobe.com/AdobeIllustrator/10.0/" 
xmlns:graph="http://ns.adobe.com/Graphs/1.0/"
version="1.1" 
viewBox="0 0 95 94.9">
    <path
    d="M76.9,34.4c-6.8-8.3-14.6-15.4-22.4-21,7.4-3.9,14.5-6.1,20.2-6.1s3.2.2,4.6.5c3.6.9,6,3,7.3,6.2,2,4.9,1.3,11.6-1.5,18.9,1.8,2.3,3.4,4.7,4.9,7,4.9-10.9,6.4-21.2,3.3-28.7-2.2-5.4-6.5-9-12.3-10.5-12-3.1-29.9,3.6-46.7,17.3-8.3,6.8-15.4,14.6-21,22.4-5-9.5-7.2-18.5-5.5-24.8.9-3.6,2.9-6,6.2-7.3,1.9-.8,4-1.1,6.4-1.1,3.7,0,7.9.9,12.4,2.6,2.3-1.8,4.7-3.5,7.1-5C29,0,18.8-1.4,11.3,1.6,5.9,3.8,2.2,8.1.7,13.9c-.5,1.9-.7,4.1-.7,6.3,0,11.6,6.5,26.4,18.1,40.4,6.8,8.3,14.6,15.4,22.5,21-9.5,5-18.5,7.2-24.8,5.5-3.6-.9-6-2.9-7.3-6.2-.8-1.9-1.1-4-1.1-6.4,0-3.7.9-7.9,2.6-12.4-1.8-2.3-3.5-4.7-5-7.1-5,11-6.4,21.2-3.4,28.7,2.2,5.4,6.4,9.1,12.3,10.5,1.9.5,4.1.7,6.3.7,11.6,0,26.4-6.5,40.4-18.1,8.3-6.8,15.4-14.6,21-22.5,3.9,7.4,6.1,14.5,6.1,20.2s-.2,3.2-.5,4.6c-.9,3.6-3,6-6.2,7.3-4.9,2-11.6,1.3-18.9-1.5-2.3,1.8-4.7,3.4-7,4.9,10.9,4.9,21.2,6.4,28.7,3.3,5.4-2.2,9-6.5,10.5-12.3,3-11.8-3.6-29.7-17.4-46.4ZM56,71.3c-2.8,2.3-5.7,4.3-8.5,6.2-8.3-5.5-16.7-12.9-23.8-21.5-2.3-2.8-4.3-5.7-6.2-8.5,5.5-8.3,12.9-16.7,21.5-23.8,2.8-2.3,5.7-4.4,8.5-6.2,8.3,5.5,16.7,12.9,23.8,21.5,2.3,2.8,4.4,5.7,6.2,8.5-5.5,8.3-12.9,16.7-21.5,23.8Z" />
    <path
    d="M47.5,32.5c-8.3,0-15,6.7-15,15s6.7,15,15,15,15-6.7,15-15-6.7-15-15-15ZM47.5,55.2c-4.2,0-7.7-3.4-7.7-7.7s3.4-7.7,7.7-7.7,7.7,3.4,7.7,7.7-3.5,7.7-7.7,7.7Z" />
</svg>