<svg 
  id="icon-create-new" 
  xmlns="http://www.w3.org/2000/svg"           
  version="1.1" 
  viewBox="0 0 28 28"
  >
  <path
    d="M13,26H3.1c-.6,0-1.1-.5-1.1-1.1V3.1c0-.6.5-1.1,1.1-1.1h10.7v6.8c0,.6.4,1,1,1h6.8v2.5c0,.6.4,1,1,1s1-.4,1-1v-3.5c0-.3-.1-.5-.3-.7L15.6.3c-.2-.2-.4-.3-.7-.3H3.1C1.4,0,0,1.4,0,3.1v21.7c0,1.7,1.4,3.1,3.1,3.1h9.9c.6,0,1-.4,1-1s-.4-1-1-1ZM15.9,3.4l4.4,4.4h-4.4V3.4Z" />
  <path
    d="M20.9,13.9c-3.9,0-7.1,3.2-7.1,7.1,0,3.9,3.2,7.1,7.1,7.1s7.1-3.2,7.1-7.1c0,0,0,0,0,0,0-3.9-3.2-7.1-7.1-7.1ZM20.9,26c-2.8,0-5.1-2.3-5.1-5.1,0-2.8,2.3-5.1,5.1-5.1,2.8,0,5.1,2.3,5.1,5.1h0c0,2.8-2.3,5.1-5.1,5.1Z" />
  <path
    d="M23.4,19.9h-1.4v-1.4c0-.6-.4-1-1-1s-1,.4-1,1v1.4h-1.4c-.6,0-1,.4-1,1s.4,1,1,1h1.4v1.4c0,.6.4,1,1,1s1-.4,1-1v-1.4h1.4c.6,0,1-.4,1-1s-.4-1-1-1Z" />
</svg>