              <svg id="iconMaxPanel" xmlns="http://www.w3.org/2000/svg" xmlns:xlink="http://www.w3.org/1999/xlink" version="1.1" viewBox="0 0 440 480">
              
                <path d="M355,410H54.3c-30,0-54.3-24.4-54.3-54.3v-155.7c0-5.5,4.5-10,10-10s10,4.5,10,10v155.7c0,18.9,15.4,34.3,34.3,34.3h300.7c8.3,0,15-6.7,15-15v-120c0-8.3-6.7-15-15-15H90c-5.5,0-10-4.5-10-10s4.5-10,10-10h265c19.3,0,35,15.7,35,35v120c0,19.3-15.7,35-35,35Z"/>
                <path d="M90,240h-50c-22.1,0-40-17.9-40-40s17.9-40,40-40h50c5.5,0,10,4.5,10,10s-4.5,10-10,10h-50c-11,0-20,9-20,20s9,20,20,20h50c5.5,0,10,4.5,10,10s-4.5,10-10,10Z"/>
                <path d="M400,480H120c-22.1,0-40-17.9-40-40v-40c0-5.5,4.5-10,10-10s10,4.5,10,10v40c0,11,9,20,20,20h280c11,0,20-9,20-20V94.1l-74.1-74.1H120c-11,0-20,9-20,20v190c0,5.5-4.5,10-10,10s-10-4.5-10-10V40C80,17.9,97.9,0,120,0h230c2.7,0,5.2,1.1,7.1,2.9l80,80c1.9,1.9,2.9,4.4,2.9,7.1v350c0,22.1-17.9,40-40,40Z"/>
                <path d="M400,480H120c-22.1,0-40-17.9-40-40v-40c0-5.5,4.5-10,10-10s10,4.5,10,10v40c0,11,9,20,20,20h280c11,0,20-9,20-20V94.1l-74.1-74.1H120c-11,0-20,9-20,20v190c0,5.5-4.5,10-10,10s-10-4.5-10-10V40C80,17.9,97.9,0,120,0h230c2.7,0,5.2,1.1,7.1,2.9l80,80c1.9,1.9,2.9,4.4,2.9,7.1v350c0,22.1-17.9,40-40,40Z"/>
                <path d="M420,100h-70c-5.5,0-10-4.5-10-10V20c0-5.5,4.5-10,10-10s10,4.5,10,10v60h60c5.5,0,10,4.5,10,10s-4.5,10-10,10Z"/>
                <path d="M220,90h-80c-5.5,0-10-4.5-10-10s4.5-10,10-10h80c5.5,0,10,4.5,10,10s-4.5,10-10,10Z"/>
                <path d="M300,130h-160c-5.5,0-10-4.5-10-10s4.5-10,10-10h160c5.5,0,10,4.5,10,10s-4.5,10-10,10Z"/>
                <path d="M300,170h-160c-5.5,0-10-4.5-10-10s4.5-10,10-10h160c5.5,0,10,4.5,10,10s-4.5,10-10,10Z"/>
                <path d="M275.1,368.7c-4.8-2.7-6.6-8.8-3.9-13.6l50-90c2.7-4.8,8.8-6.6,13.6-3.9,4.8,2.7,6.6,8.8,3.9,13.6l-50,90c-2.7,4.8-8.8,6.6-13.6,3.9Z"/>
                <path d="M321.3,364.9l-50-90c-2.7-4.8-.9-10.9,3.9-13.6,4.8-2.7,10.9-.9,13.6,3.9l50,90c2.7,4.8.9,10.9-3.9,13.6-4.8,2.7-10.9,1-13.6-3.9Z"/>
                <path d="M355,410H54.3c-30,0-54.3-24.4-54.3-54.3v-155.7c0-5.5,4.5-10,10-10s10,4.5,10,10v155.7c0,18.9,15.4,34.3,34.3,34.3h300.7c8.3,0,15-6.7,15-15v-120c0-8.3-6.7-15-15-15H90c-5.5,0-10-4.5-10-10s4.5-10,10-10h265c19.3,0,35,15.7,35,35v120c0,19.3-15.7,35-35,35Z"/>
                <path d="M240,370c-5.5,0-10-4.5-10-10v-60c0-11-9-20-20-20s-20,9-20,20v60c0,5.5-4.5,10-10,10s-10-4.5-10-10v-60c0-22.1,17.9-40,40-40s40,17.9,40,40v60c0,5.5-4.5,10-10,10Z"/>
                <path d="M240,340h-60c-5.5,0-10-4.5-10-10s4.5-10,10-10h60c5.5,0,10,4.5,10,10s-4.5,10-10,10Z"/>
                <path d="M90,240h-50c-22.1,0-40-17.9-40-40s17.9-40,40-40h50c5.5,0,10,4.5,10,10s-4.5,10-10,10h-50c-11,0-20,9-20,20s9,20,20,20h50c5.5,0,10,4.5,10,10s-4.5,10-10,10Z"/>
                <path d="M420,100h-70c-5.5,0-10-4.5-10-10V20c0-5.5,4.5-10,10-10s10,4.5,10,10v60h60c5.5,0,10,4.5,10,10s-4.5,10-10,10Z"/>
                <path d="M220,90h-80c-5.5,0-10-4.5-10-10s4.5-10,10-10h80c5.5,0,10,4.5,10,10s-4.5,10-10,10Z"/>
                <path d="M300,130h-160c-5.5,0-10-4.5-10-10s4.5-10,10-10h160c5.5,0,10,4.5,10,10s-4.5,10-10,10Z"/>
                <path d="M300,170h-160c-5.5,0-10-4.5-10-10s4.5-10,10-10h160c5.5,0,10,4.5,10,10s-4.5,10-10,10Z"/>
                <path d="M140,370c-5.5,0-10-4.5-10-10v-65.9l-22.9,22.9c-3.9,3.9-10.2,3.9-14.1,0l-22.9-22.9v65.9c0,5.5-4.5,10-10,10s-10-4.5-10-10v-90c0-8.9,10.8-13.4,17.1-7.1l32.9,32.9,32.9-32.9c6.3-6.3,17.1-1.8,17.1,7.1v90c0,5.5-4.5,10-10,10Z"/>
              </svg>