  <svg
    id="Layer_1"
    xmlns="http://www.w3.org/2000/svg"
    xmlnsXlink="http://www.w3.org/1999/xlink"
    viewBox="0 0 60 50"
  >
    <path d="M5,0h0c2.8,0,5,2.2,5,5h0c0,2.8-2.2,5-5,5h0C2.2,10,0,7.8,0,5h0C0,2.2,2.2,0,5,0Z" />
    <path d="M5,20h0c2.8,0,5,2.2,5,5h0c0,2.8-2.2,5-5,5h0c-2.8,0-5-2.2-5-5h0c0-2.8,2.2-5,5-5Z" />
    <path d="M5,40h0c-2.8,0-5,2.2-5,5h0c0,2.8,2.2,5,5,5h0c2.8,0,5-2.2,5-5h0c0-2.8-2.2-5-5-5Z" />
    <path d="M25,0h30c2.8,0,5,2.2,5,5h0c0,2.8-2.2,5-5,5h-30c-2.8,0-5-2.2-5-5h0c0-2.8,2.2-5,5-5Z" />
    <path d="M25,20h30c2.8,0,5,2.2,5,5h0c0,2.8-2.2,5-5,5h-30c-2.8,0-5-2.2-5-5h0c0-2.8,2.2-5,5-5Z" />
    <path d="M55,40h-30c-2.8,0-5,2.2-5,5h0c0,2.8,2.2,5,5,5h30c2.8,0,5-2.2,5-5h0c0-2.8-2.2-5-5-5Z" />
  </svg>