<svg width="20" height="21" viewBox="0 0 20 21" fill="none" xmlns="http://www.w3.org/2000/svg">
<path d="M15.8334 9.66665H10.8334V4.66665C10.8334 4.44563 10.7456 4.23367 10.5893 4.07739C10.433 3.92111 10.2211 3.83331 10 3.83331C9.77903 3.83331 9.56707 3.92111 9.41079 4.07739C9.2545 4.23367 9.16671 4.44563 9.16671 4.66665V9.66665H4.16671C3.94569 9.66665 3.73373 9.75444 3.57745 9.91072C3.42117 10.067 3.33337 10.279 3.33337 10.5C3.33337 10.721 3.42117 10.933 3.57745 11.0892C3.73373 11.2455 3.94569 11.3333 4.16671 11.3333H9.16671V16.3333C9.16671 16.5543 9.2545 16.7663 9.41079 16.9226C9.56707 17.0788 9.77903 17.1666 10 17.1666C10.2211 17.1666 10.433 17.0788 10.5893 16.9226C10.7456 16.7663 10.8334 16.5543 10.8334 16.3333V11.3333H15.8334C16.0544 11.3333 16.2663 11.2455 16.4226 11.0892C16.5789 10.933 16.6667 10.721 16.6667 10.5C16.6667 10.279 16.5789 10.067 16.4226 9.91072C16.2663 9.75444 16.0544 9.66665 15.8334 9.66665Z" fill="#566c8c"/>
</svg>
