<svg 
id="Layer_1" 
xmlns="http://www.w3.org/2000/svg"
version="1.1" 
viewBox="0 0 83.3 82.2">
  <path fill="hsla(118, 86%, 30%, 1)"
    d="M65.9,32c-9.6,0-17.5,7.8-17.5,17.5,1,23.1,34,23.1,34.9,0,0-9.6-7.8-17.5-17.5-17.5ZM74.4,45.9l-9.9,9.9c-.8.8-2.1.8-2.9,0l-5.6-5.6c-.8-.8-.8-2.1,0-2.9s2.1-.8,3,0l4.1,4.1,8.5-8.5c1.9-1.9,4.9,1,2.9,3h0Z" />
  <path
    d="M45.5,56.8c-.6-1.5-.9-3.1-1.1-4.8-3.2-1.2-6.2-3.2-8.7-5.7C13.6,22.2,46.6-10.7,70.7,11.5c5.4,5.4,7.9,12.7,7.1,19.9,1.4.9,2.6,2,3.7,3.1,1.9-9.3-1-19-7.9-26C46.5-16.7,8.2,19.1,31.4,47.8l-5,5c-1.5-2.1-4.7-2.6-6.6-.7L2.1,69.8c-4.6,4.4-1.2,12.6,5.1,12.4,1.9,0,3.7-.7,5.1-2.1l17.7-17.7c2-2,1.4-4.9-.7-6.6l5-5c3.3,2.8,7.1,4.9,11.2,6h0Z" />
</svg>