<svg class="icon-reload-ai" xmlns="http://www.w3.org/2000/svg" version="1.1" viewBox="0 0 83.7 80.8" width="18" height="18">

<path class="st0" d="M68.8,62.5c1.1.9,1.3,2.4.4,3.5-7.7,9.7-19.9,15.6-33.2,14.7C14.6,79.2-1.4,60.7,0,39.3,1.2,24.2,10.8,11.7,23.9,6.3c1.3-.5,2.7,0,3.3,1.3.5,1.3,0,2.7-1.3,3.3C14.4,15.6,6,26.5,5.1,39.7c-1.3,18.6,12.7,34.7,31.3,36.1,11.6.8,22.2-4.3,28.9-12.8.9-1.1,2.4-1.3,3.5-.4h0Z"/>
<path class="st0" d="M49.2,37.4c-1.2-.5-2.4-.8-3.7-1.1,0,0-.2,0-.3,0-.8-.1-.8-1.3,0-1.4,0,0,.2,0,.3,0,1.3-.2,2.5-.6,3.7-1.1.7-.3,1.4-.6,2-.9,4.2-2.1,7.6-5.5,9.7-9.7.3-.7.6-1.3.9-2,.5-1.2.8-2.4,1.1-3.7,0,0,0-.2,0-.3.1-.8,1.3-.8,1.4,0,0,0,0,.2,0,.3.2,1.3.6,2.5,1.1,3.7.3.7.6,1.4.9,2,2.1,4.2,5.5,7.6,9.7,9.7.7.3,1.3.6,2,.9,1.2.5,2.4.8,3.7,1.1,0,0,.2,0,.3,0,.8.1.8,1.3,0,1.4,0,0-.2,0-.3,0-1.3.2-2.5.6-3.7,1.1-.7.3-1.4.6-2,.9-4.2,2.1-7.6,5.5-9.7,9.7-.3.7-.6,1.3-.9,2-.5,1.2-.8,2.4-1.1,3.7,0,0,0,.2,0,.3-.1.8-1.3.8-1.4,0,0,0,0-.2,0-.3-.2-1.3-.6-2.5-1.1-3.7-.3-.7-.6-1.4-.9-2-2.1-4.2-5.5-7.6-9.7-9.7-.7-.3-1.3-.6-2-.9Z"/>
<path class="st0" d="M41.3,12.6c-1.2-.8-2.6-1.3-4.1-1.6,0,0,0,0-.1,0-.4,0-.4-.7,0-.8,0,0,0,0,.1,0,1.5-.3,2.9-.8,4.1-1.6.5-.3.9-.6,1.3-1,.6-.5,1.2-1.1,1.7-1.7.3-.4.7-.9,1-1.3.8-1.2,1.3-2.6,1.6-4.1,0,0,0,0,0-.1,0-.4.7-.4.8,0,0,0,0,0,0,.1.3,1.5.8,2.9,1.6,4.1.3.5.6.9,1,1.3.5.6,1.1,1.2,1.7,1.7.4.3.9.7,1.3,1,1.2.8,2.6,1.3,4.1,1.6,0,0,0,0,.1,0,.4,0,.4.7,0,.8,0,0,0,0-.1,0-1.5.3-2.9.8-4.1,1.6-.5.3-.9.6-1.3,1-.6.5-1.2,1.1-1.7,1.7-.3.4-.7.9-1,1.3-.8,1.2-1.3,2.6-1.6,4.1,0,0,0,0,0,.1,0,.4-.7.4-.8,0,0,0,0,0,0-.1-.3-1.5-.8-2.9-1.6-4.1-.3-.5-.6-.9-1-1.3-.5-.6-1.1-1.2-1.7-1.7-.4-.3-.9-.7-1.3-1Z"/>
<path class="st0" d="M76,17.6c.6.8,1,1.8,1.2,2.8,0,0,0,0,0,0,0,.3.4.3.5,0,0,0,0,0,0,0,.2-1,.6-2,1.2-2.8.2-.3.4-.5.6-.8.2-.2.3-.3.5-.5.2-.2.5-.4.8-.6.8-.6,1.8-1,2.8-1.2,0,0,0,0,0,0,.3,0,.3-.4,0-.5,0,0,0,0,0,0-1-.2-2-.6-2.8-1.2-.3-.2-.5-.4-.8-.6-.2-.2-.3-.3-.5-.5-.2-.2-.4-.5-.6-.8-.6-.8-1-1.8-1.2-2.8,0,0,0,0,0,0,0-.3-.4-.3-.5,0,0,0,0,0,0,0-.2,1-.6,2-1.2,2.8-.2.3-.4.5-.6.8-.2.2-.3.3-.5.5-.2.2-.5.4-.8.6-.8.6-1.8,1-2.8,1.2,0,0,0,0,0,0-.3,0-.3.4,0,.5,0,0,0,0,0,0,1,.2,2,.6,2.8,1.2.3.2.5.4.8.6.2.2.3.3.5.5.2.2.4.5.6.8Z"/>
</svg>