<svg
                  xmlns="http://www.w3.org/2000/svg"
                  version="1.1"
                  viewBox="0 0 75.9 87.8"
                  fill="hsl(0, 67%, 24%, 1)"
                >
                  <path
                   
                    d="M6.8,78.2c0,5.2,4.2,9.4,9.4,9.4h43.8c5.2,0,9.4-4.2,9.4-9.4v-37.5H6.8v37.5ZM44.3,50.1c0-1.7,1.4-3.1,3.1-3.1s3.1,1.4,3.1,3.1v28.1c0,1.7-1.4,3.1-3.1,3.1s-3.1-1.4-3.1-3.1v-28.1ZM25.5,50.1c0-1.7,1.4-3.1,3.1-3.1s3.1,1.4,3.1,3.1v28.1c0,1.7-1.4,3.1-3.1,3.1s-3.1-1.4-3.1-3.1v-28.1ZM69.3,12.6h-9.4v-3.1C59.9,4.3,55.7,0,50.5,0h-25c-5.2,0-9.4,4.2-9.4,9.4v3.1H6.8c-3.5,0-6.2,2.8-6.2,6.2v9.4c0,1.7.7,3.2,1.8,4.4s2.8,1.8,4.4,1.8h62.5c1.7,0,3.2-.7,4.4-1.8s1.8-2.8,1.8-4.4v-9.4c0-1.7-.7-3.2-1.8-4.4s-2.8-1.8-4.4-1.8ZM22.4,9.4c0-1.7,1.4-3.1,3.1-3.1h25c.8,0,1.6.3,2.2.9.6.6.9,1.4.9,2.2v3.1h-31.2v-3.1Z"
                  />
                </svg>